<svg width="178" height="27" viewBox="0 0 178 27" fill="none" xmlns="http://www.w3.org/2000/svg">
<path d="M8.89062 26.8203C8.00521 26.8203 7.11979 26.6641 6.23438 26.3516C5.375 26.0391 4.54167 25.5833 3.73438 24.9844C2.92708 24.3594 2.22396 23.5391 1.625 22.5234C1.02604 21.5078 0.700521 20.2969 0.648438 18.8906V4.78906C0.648438 4.0599 0.908854 3.46094 1.42969 2.99219C1.97656 2.4974 2.61458 2.25 3.34375 2.25C4.90625 2.38021 5.7526 3.22656 5.88281 4.78906V18.5781C5.90885 19.2031 6.03906 19.737 6.27344 20.1797C6.50781 20.5964 6.76823 20.9349 7.05469 21.1953C7.34115 21.4297 7.6276 21.612 7.91406 21.7422C8.22656 21.8464 8.53906 21.8984 8.85156 21.8984C9.16406 21.8984 9.47656 21.8464 9.78906 21.7422C10.1016 21.612 10.401 21.4297 10.6875 21.1953C10.974 20.9349 11.2344 20.5964 11.4688 20.1797C11.7031 19.737 11.8203 19.2031 11.8203 18.5781V4.78906C11.8203 4.0599 12.0807 3.46094 12.6016 2.99219C13.1484 2.4974 13.7865 2.25 14.5156 2.25C16.0781 2.38021 16.9375 3.22656 17.0938 4.78906V18.5781C17.1198 19.2031 17.25 19.724 17.4844 20.1406C17.7188 20.5833 17.9792 20.9349 18.2656 21.1953C18.5521 21.4297 18.8385 21.612 19.125 21.7422C19.4375 21.8464 19.75 21.8984 20.0625 21.8984C20.375 21.8984 20.6875 21.8464 21 21.7422C21.3125 21.612 21.612 21.4297 21.8984 21.1953C22.1849 20.9349 22.4453 20.5964 22.6797 20.1797C22.9141 19.737 23.0312 19.2031 23.0312 18.5781V4.78906C23.0312 4.0599 23.2917 3.46094 23.8125 2.99219C24.3594 2.4974 24.9974 2.25 25.7266 2.25C27.2891 2.38021 28.1484 3.22656 28.3047 4.78906V18.8906C28.3047 20.2969 27.9922 21.5078 27.3672 22.5234C26.7682 23.5391 26.0651 24.3594 25.2578 24.9844C24.4766 25.5833 23.6432 26.0391 22.7578 26.3516C21.8984 26.6641 21.013 26.8203 20.1016 26.8203C19.2161 26.8203 18.3307 26.6641 17.4453 26.3516C16.5859 26.0391 15.7526 25.5703 14.9453 24.9453C14.7891 24.8411 14.6458 24.724 14.5156 24.5938C14.3594 24.724 14.2161 24.8411 14.0859 24.9453C13.2786 25.5703 12.4323 26.0391 11.5469 26.3516C10.6875 26.6641 9.80208 26.8203 8.89062 26.8203ZM37.4453 26.5469C36.4036 26.5469 35.5312 26.1823 34.8281 25.4531C34.151 24.724 33.8125 23.8125 33.8125 22.7188C33.8125 21.625 34.151 20.7135 34.8281 19.9844C35.5312 19.2552 36.4036 18.8906 37.4453 18.8906C38.487 18.8906 39.3594 19.2552 40.0625 19.9844C40.7656 20.7135 41.1172 21.625 41.1172 22.7188C41.1172 23.8125 40.7656 24.724 40.0625 25.4531C39.3594 26.1823 38.487 26.5469 37.4453 26.5469ZM51.6641 23.8516C51.5078 25.4141 50.6484 26.2604 49.0859 26.3906C48.3568 26.3906 47.7188 26.1562 47.1719 25.6875C46.651 25.1927 46.3906 24.5807 46.3906 23.8516V5.41406C46.4167 4.6849 46.6901 4.08594 47.2109 3.61719C47.7318 3.1224 48.3568 2.875 49.0859 2.875H65.4922C67.7839 2.95312 69.5156 3.46094 70.6875 4.39844C71.8594 5.3099 72.7057 6.35156 73.2266 7.52344C73.7474 8.69531 74.0078 9.88021 74.0078 11.0781C74.0078 12.3281 73.7474 13.5391 73.2266 14.7109C72.7318 15.8828 71.8854 16.9375 70.6875 17.875C69.5156 18.7865 68.0182 19.2292 66.1953 19.2031H56.3516C55.6224 19.2031 55.0104 18.9427 54.5156 18.4219C53.9948 17.9271 53.7344 17.3151 53.7344 16.5859C53.7344 15.8568 53.9818 15.2448 54.4766 14.75C54.9974 14.2292 55.6224 13.9688 56.3516 13.9688H66.4297C66.9245 13.9688 67.3281 13.8125 67.6406 13.5C67.9792 13.1615 68.2266 12.7839 68.3828 12.3672C68.5391 11.9245 68.6172 11.4818 68.6172 11.0391C68.6172 10.6224 68.5391 10.2057 68.3828 9.78906C68.2266 9.34635 67.9792 8.96875 67.6406 8.65625C67.3281 8.31771 66.9245 8.13542 66.4297 8.10938H52.6797C52.0026 8.13542 51.6641 8.47396 51.6641 9.125V23.8516ZM86.2344 25.9219C83.9427 25.8438 82.2109 25.3099 81.0391 24.3203C79.8672 23.3047 79.0208 22.1719 78.5 20.9219C77.9792 19.6458 77.7188 18.3568 77.7188 17.0547C77.7188 15.7005 77.9661 14.3984 78.4609 13.1484C78.9818 11.8724 79.8281 10.7396 81 9.75C82.1979 8.73438 83.7083 8.21354 85.5312 8.1875H98.1875C100.01 8.21354 101.508 8.73438 102.68 9.75C103.878 10.7396 104.724 11.8724 105.219 13.1484C105.74 14.3984 106 15.7005 106 17.0547C106 18.3568 105.74 19.6458 105.219 20.9219C104.698 22.1719 103.852 23.3047 102.68 24.3203C101.508 25.3099 99.776 25.8438 97.4844 25.9219H86.2344ZM85.375 13.4219C84.8802 13.4219 84.4505 13.6302 84.0859 14.0469C83.7214 14.4375 83.4479 14.9062 83.2656 15.4531C83.1094 15.974 83.0312 16.4948 83.0312 17.0156C83.0312 17.5625 83.1094 18.1094 83.2656 18.6562C83.4479 19.1771 83.7214 19.6458 84.0859 20.0625C84.4505 20.4531 84.8802 20.6615 85.375 20.6875H98.3438C98.8385 20.6615 99.2682 20.4531 99.6328 20.0625C99.9974 19.6458 100.258 19.1771 100.414 18.6562C100.596 18.1094 100.688 17.5625 100.688 17.0156C100.688 16.4948 100.596 15.974 100.414 15.4531C100.258 14.9062 99.9974 14.4375 99.6328 14.0469C99.2682 13.6302 98.8385 13.4219 98.3438 13.4219H85.375ZM113.188 7.79688C113.891 7.82292 114.49 8.08333 114.984 8.57812C115.479 9.04688 115.74 9.63281 115.766 10.3359V23.8516C115.609 25.4141 114.75 26.2604 113.188 26.3906C112.458 26.3906 111.82 26.1562 111.273 25.6875C110.753 25.1927 110.492 24.5807 110.492 23.8516V10.3359C110.518 9.60677 110.792 9.00781 111.312 8.53906C111.833 8.04427 112.458 7.79688 113.188 7.79688ZM109.906 2.71875C109.906 1.98958 110.219 1.36458 110.844 0.84375C111.469 0.322917 112.224 0.0625 113.109 0.0625C113.995 0.0625 114.75 0.322917 115.375 0.84375C116 1.36458 116.312 1.98958 116.312 2.71875C116.312 3.47396 116 4.11198 115.375 4.63281C114.75 5.15365 113.995 5.41406 113.109 5.41406C112.224 5.41406 111.469 5.15365 110.844 4.63281C110.219 4.11198 109.906 3.47396 109.906 2.71875ZM132.992 7.60156C134.346 7.60156 135.674 7.75781 136.977 8.07031C138.305 8.38281 139.568 8.85156 140.766 9.47656C141.964 10.0755 143.018 10.8828 143.93 11.8984C144.867 12.9141 145.375 14.125 145.453 15.5312V17.1719V23.8516C145.297 25.4141 144.438 26.2604 142.875 26.3906C142.146 26.3906 141.508 26.1562 140.961 25.6875C140.44 25.1927 140.18 24.5807 140.18 23.8516V22.1328V16.7422C140.128 15.9349 139.815 15.2708 139.242 14.75C138.695 14.2031 138.07 13.7734 137.367 13.4609C136.69 13.1484 135.974 12.9141 135.219 12.7578C134.49 12.6016 133.747 12.5234 132.992 12.5234C132.237 12.5234 131.482 12.6016 130.727 12.7578C129.997 12.9141 129.281 13.1484 128.578 13.4609C127.901 13.7734 127.276 14.2031 126.703 14.75C126.156 15.2708 125.857 15.9349 125.805 16.7422V22.1328V23.8516C125.674 25.4141 124.828 26.2604 123.266 26.3906C122.536 26.3906 121.898 26.1562 121.352 25.6875C120.831 25.1927 120.57 24.5807 120.57 23.8516V17.1719V15.5312C120.648 14.125 121.143 12.9141 122.055 11.8984C122.966 10.8828 124.021 10.0755 125.219 9.47656C126.417 8.85156 127.667 8.38281 128.969 8.07031C130.297 7.75781 131.638 7.60156 132.992 7.60156ZM158.891 2.25C159.62 2.25 160.245 2.4974 160.766 2.99219C161.286 3.46094 161.56 4.0599 161.586 4.78906V8.1875H174.867C175.596 8.1875 176.221 8.4349 176.742 8.92969C177.237 9.45052 177.484 10.0755 177.484 10.8047C177.484 11.5339 177.224 12.1589 176.703 12.6797C176.208 13.1745 175.596 13.4219 174.867 13.4219H161.586V14.2031C161.56 15.2708 161.625 16.2604 161.781 17.1719C161.964 18.0573 162.38 18.8516 163.031 19.5547C163.682 20.2578 164.503 20.6354 165.492 20.6875H175.023C175.753 20.7135 176.352 20.987 176.82 21.5078C177.315 22.0286 177.562 22.6536 177.562 23.3828C177.536 24.0859 177.276 24.6849 176.781 25.1797C176.312 25.6484 175.727 25.8958 175.023 25.9219H164.164C162.341 25.8177 160.831 25.2057 159.633 24.0859C158.461 22.9401 157.615 21.5469 157.094 19.9062C156.599 18.2656 156.339 16.5208 156.312 14.6719V13.4219H151.82C151.091 13.4219 150.479 13.1615 149.984 12.6406C149.464 12.1458 149.203 11.5339 149.203 10.8047C149.203 10.0755 149.451 9.46354 149.945 8.96875C150.466 8.44792 151.091 8.1875 151.82 8.1875H156.312V4.78906C156.339 4.08594 156.599 3.5 157.094 3.03125C157.589 2.53646 158.188 2.27604 158.891 2.25Z" fill="#412C86"/>
</svg>
