<svg xmlns="http://www.w3.org/2000/svg" width="38" height="38" viewBox="0 0 38 38" fill="none">
  <path d="M31.7979 6.5647C31.8008 6.56172 31.8038 6.55881 31.8069 6.55583V6.55566C31.8039 6.55881 31.8009 6.5618 31.7979 6.5647Z" fill="#6B51FE"/>
  <path d="M29.807 14.6905L22.8838 21.6137L21.1817 19.9116C21.3832 19.4937 21.5377 19.141 21.6515 18.867L20.9336 18.4742L21.4765 17.4824L24.8627 14.0962L29.807 14.6905Z" fill="#EDEDEC"/>
  <path d="M23.9013 13.1347L20.5151 16.5209L19.5233 17.0638L19.1305 16.346C18.8569 16.46 18.5041 16.6146 18.0858 16.8157L16.3838 15.1136L23.307 8.19043L23.9013 13.1347Z" fill="#EDEDEC"/>
  <path d="M36.5695 0.982819C36.5283 1.0415 36.4814 1.10032 36.4226 1.16501C36.2521 1.37064 35.2825 2.34629 34.9415 2.68708C34.4009 2.14644 33.249 2.41676 32.3732 3.29241C31.4976 4.16806 31.2331 5.31402 31.7738 5.86075C31.6621 5.97239 31.5446 6.08404 31.4329 6.20169C31.4388 6.19568 31.4388 6.19568 31.4388 6.18989C31.186 5.93708 30.6513 6.06045 30.2398 6.47201C29.8284 6.88335 29.7051 7.42399 29.9578 7.67665C29.6346 7.99994 29.3408 8.29378 29.0997 8.53465C28.5943 9.04012 28.2887 9.34576 28.2887 9.34576L27.5893 9.53974L24.5627 10.3919L23.5988 10.6563L22.5939 10.9384L20.1961 11.6144L19.7553 11.7378L18.9736 11.9551L27.5601 3.36889L35.7997 0.212881L36.3051 0.019043C36.693 0.406868 36.8869 0.530233 36.5695 0.982819Z" fill="#F6F5F5"/>
  <path d="M34.7069 5.62197C35.5822 4.74662 35.8514 3.59657 35.3081 3.05326C35.6497 2.71195 36.6292 1.74209 36.8307 1.57288C37.4353 1.06532 37.5457 1.25671 37.9811 1.69209L34.6287 10.4371L26.0449 19.0209L28.6507 9.7106C28.6507 9.7106 29.3239 9.03747 30.3216 8.03971C30.576 8.29416 31.1146 8.16812 31.5245 7.75819C31.9345 7.34826 32.0605 6.8097 31.8061 6.55533C31.8032 6.55815 31.8006 6.56082 31.7978 6.56364C31.911 6.45043 32.0245 6.33686 32.1381 6.22329C32.6814 6.76652 33.8315 6.49732 34.7069 5.62197Z" fill="#F6F5F5"/>
  <path d="M26.5009 15.4466C28.6825 15.4466 30.451 13.6781 30.451 11.4965C30.451 9.31492 28.6825 7.54639 26.5009 7.54639C24.3193 7.54639 22.5508 9.31492 22.5508 11.4965C22.5508 13.6781 24.3193 15.4466 26.5009 15.4466Z" fill="#D4D4D4"/>
  <path d="M26.5007 13.7329C27.7357 13.7329 28.7368 12.7318 28.7368 11.4968C28.7368 10.2619 27.7357 9.26074 26.5007 9.26074C25.2658 9.26074 24.2646 10.2619 24.2646 11.4968C24.2646 12.7318 25.2658 13.7329 26.5007 13.7329Z" fill="#F6F5F5"/>
  <path d="M17.877 32.7802C15.3841 35.002 13.1687 36.2466 10.0016 37.7697C9.04727 38.2284 7.88046 37.9632 7.10948 37.1922C6.9258 37.0079 6.76409 36.795 6.6333 36.5563C5.95565 35.3173 6.36462 33.8523 7.54716 33.2835C13.7836 30.2849 16.8412 26.8665 18.857 23.9785C19.9768 22.3733 20.7144 20.9434 21.1692 19.9238C21.344 19.5326 21.4766 19.2017 21.5736 18.9444C21.7045 18.5979 21.77 18.385 21.7839 18.3384L25.0045 19.4926L26.5493 20.0466C26.5349 20.0981 26.3825 20.6383 26.0255 21.5192C25.5229 22.7579 24.6163 24.6709 23.1224 26.8463C21.6441 28.9984 19.8791 30.9952 17.877 32.7802Z" fill="#563EF0"/>
  <path d="M19.6676 16.21L19.6617 16.2158C19.6265 16.2276 19.4501 16.2805 19.1563 16.3863C19.1211 16.3981 19.0857 16.4098 19.0505 16.4216C18.7978 16.5215 18.4628 16.6508 18.0749 16.8271C17.0523 17.2856 15.6242 18.0202 14.0198 19.1426C11.1284 21.1584 7.71382 24.2145 4.71656 30.4499C4.16413 31.5961 2.77128 32.0192 1.55477 31.4197C1.51953 31.4079 1.47836 31.3844 1.44312 31.3668C1.20218 31.2316 0.990611 31.0729 0.802559 30.8849C0.579196 30.6615 0.402865 30.4088 0.273639 30.1386C-0.0613678 29.4626 -0.102465 28.6751 0.226608 27.9934C1.74875 24.8257 2.99472 22.616 5.21618 20.1183C7.00279 18.12 9.00096 16.351 11.1519 14.8759C13.3265 13.3831 15.2423 12.4723 16.4765 11.9727C17.358 11.6142 17.8988 11.4614 17.9516 11.4497L18.5041 12.9894V12.9953L19.6618 16.21C19.6676 16.21 19.6676 16.21 19.6676 16.21Z" fill="#563EF0"/>
  <path opacity="0.1" d="M19.6675 16.21C19.6675 16.21 19.6675 16.21 19.6616 16.21L18.5038 12.9953V12.9894L17.9514 11.4497C17.8985 11.4614 17.3578 11.6142 16.4763 11.9727C16.1977 12.0854 15.8799 12.2225 15.5366 12.3791L15.5947 12.4783L16.7113 14.406L18.1058 16.8138C18.4796 16.6451 18.8049 16.5186 19.0503 16.4216C19.0856 16.4098 19.1209 16.3981 19.1561 16.3863C19.45 16.2805 19.6263 16.2276 19.6615 16.2158L19.6675 16.21Z" fill="#040000"/>
  <path d="M22.4883 15.5691L22.365 15.6278L20.3844 16.6504L19.4617 17.1265L19.0503 16.4213L19.0326 16.386L17.5927 13.9L16.4761 11.9723L16.3762 11.8019C16.1882 11.467 16.288 11.0672 16.5995 10.9086L19.0619 9.63916L19.8788 11.0497L20.0845 11.4082V11.414L20.1962 11.6139L22.1121 14.9226L22.4647 15.5338L22.4883 15.5691Z" fill="#563EF0"/>
  <path opacity="0.1" d="M26.5496 20.0466L25.0048 19.4926L21.7842 18.3384C21.7703 18.385 21.7048 18.5978 21.5738 18.9444C21.4888 19.1701 21.3705 19.4614 21.2261 19.7915L21.2908 19.829L23.8118 21.287L25.6642 22.3583C25.8007 22.0553 25.924 21.7702 26.0258 21.5192C26.3828 20.6383 26.5352 20.0981 26.5496 20.0466Z" fill="#040000"/>
  <path d="M26.1979 21.6191L26.0254 21.5191L24.0943 20.4025L21.5735 18.9445L20.8696 18.5377L21.3464 17.612L22.3677 15.6294L22.4289 15.5107L22.4653 15.5319L23.0744 15.884L26.5835 17.9134L28.3552 18.9379L27.0894 21.3953C26.9281 21.7087 26.5269 21.809 26.1979 21.6191Z" fill="#563EF0"/>
  <path opacity="0.05" d="M36.831 1.57294C36.6295 1.74208 35.65 2.71186 35.3084 3.0534C35.8517 3.59663 35.5825 4.74676 34.7071 5.62203C33.8318 6.49738 32.6817 6.76659 32.1384 6.22321C32.0276 6.33396 31.9168 6.44486 31.8064 6.55539C32.0608 6.80976 31.9348 7.34825 31.5249 7.75818C31.1149 8.16812 30.5764 8.29423 30.3219 8.03971C29.9968 8.36485 29.7109 8.65082 29.4668 8.89488C29.4102 8.83056 29.3553 8.76513 29.2938 8.70364L23.7075 14.2899C23.8718 14.4542 24.0487 14.5971 24.2323 14.7263L23.0748 15.8839H23.0747L22.4657 15.5318L22.3677 15.6298L21.3465 17.612L20.8698 18.5378L21.5736 18.9445C21.4767 19.2018 21.344 19.5326 21.1692 19.9239C20.7144 20.9435 19.9768 22.3734 18.857 23.9786C16.8412 26.8666 13.7836 30.285 7.54716 33.2836C6.36462 33.8525 5.95565 35.3175 6.6333 36.5564C6.76409 36.7951 6.92573 37.0081 7.10948 37.1923C7.88053 37.9633 9.04734 38.2285 10.0017 37.7698C13.1688 36.2468 15.3841 35.0021 17.877 32.7802C19.8791 30.9953 21.6442 28.9985 23.1225 26.8462C24.6164 24.6708 25.5229 22.758 26.0257 21.5193L26.1982 21.6191C26.5273 21.8091 26.9285 21.7088 27.0897 21.3953L28.3555 18.9379L26.9444 18.1219L34.6289 10.4374L37.9813 1.692C37.5459 1.2567 37.4356 1.06531 36.831 1.57294Z" fill="#040000"/>
</svg>